<svg id="Layer_1" data-name="Layer 1" xmlns="http://www.w3.org/2000/svg" viewBox="0 0 505.6 210.02"><defs><style>.cls-1{fill:none;}</style></defs><g id="gold"><path class="cls-1" d="M390.52,513.77c-5.21,1.53-9.52,5.33-15.1,5.93-3-1.42-5.56-.57-8.37.91-5.07,2.69-10.63,3.16-16.38,3.34-5.29.17-10.55,3.28-15.89,1.31-4.41-1.63-8.82-1.23-13.26-1.58-3.58-.28-7.08-1.44-10.75-.64a2,2,0,0,1-1.75-.6c-1.81-3.53-5.07-2.54-7.94-2.65-4-.15-8.31.78-11.91-.45-12-4.09-23.15.54-33.92,3.71-12.25,3.6-20.64,2.62-28.67-7.52-1.12-1.42-2.16-2.94-4-3.67-10.06-4-20.3-7.19-31.32-6.11-7.83.77-14-4.39-21.22-5.69a3.12,3.12,0,0,1-1.21-.85c-6.28-5.35-9-12.57-10.54-20.36-.28-1.39-.63-2.65-2-3.21-1.67-.68-2.24.77-3.14,1.73-1.78,1.89-3.71,3.64-5.77,5.63-1.56-2.09-3.22-3.81-5.89-2.91-8,2.68-15.49-.81-23.2-1.67a51.1,51.1,0,0,1-15.15-4.35,33.88,33.88,0,0,1-12.08-8.58C83.46,456.9,77,447.42,64,445.05c-8.23-1.5-15.91-6.19-19.33-15.06a6.34,6.34,0,0,0-2.16-3.26c.94-2.55.32-6,3.86-7.09a38.1,38.1,0,0,0,13.85-1.31c2.1-.64,4.47-1.18,6.4-.33,5.62,2.48,11.47,1.71,17.24,1.67,7.1-.05,13.41,1.87,17.36,7.89,3.43,5.24,8.47,8.66,12.63,13a15.67,15.67,0,0,0,10.58,5.08c7.74.36,14.43,3.83,20.54,7.84a16.52,16.52,0,0,0,13.08,2.68c9.39-1.72,18.4-5.56,28.3-4.54,6.2.64,10.86,2.93,14.57,8.18A76.56,76.56,0,0,0,213.16,474c3.94,3.41,7.34,6.53,12.94,6,1.11-.11,2.47.91,3.49,1.71,2.11,1.65,4.47,1.9,7,2.09,5.24.37,8.47-3.51,12.46-5.65,2.68-1.44,5.79-2.43,7.32-5.7,2.23-4.77,10-7,15.29-6,6.87,1.26,13.42,3.52,19.95,5.64,5.39,1.75,10.91.9,16.15,2.39,9.18,2.61,18.69,2.11,27.69.66a40.94,40.94,0,0,0,17-7.4c3.63.6,4.15-4.8,7.85-4.06,8.25-4.41,11.24-13.94,6-20.19a58.14,58.14,0,0,1-4.52-6.15c.08-5.29-2.29-10.27-1.67-15.69a23.49,23.49,0,0,0-1.46-11.24c-1.16-3-2.57-6.85-1.66-9.58,3.78-11.28-1.58-22-1.28-33a6.51,6.51,0,0,0-3.5-5.72c-.3-1.91,1.28-4.47-1.87-5.39a154.78,154.78,0,0,0-6.08-18.52,18.08,18.08,0,0,0-1.18-9.74c-1.86-4.57.19-8.18,3.79-11.26,2.6-2.22,4.86-1.12,7.37-.12,1.2.48,2.63.35,3.88.74,5.92,1.85,12.13,1.48,18.13,2.45,9.61,1.55,19.22,3.06,28.93,3.45,5.85.23,11.37,2,17.07,2.87,6.82,1,13.4,3.46,20.47,3.25,8.62-.26,17.31-.68,25.37,3.54,1.09.57,2.61.4,3.94.41,9.63,0,18.77,1.34,27.66,5.84,9.88,5,17.64,12,20.78,22.24,1.43,4.65,2.13,8.86,5.3,13a50.33,50.33,0,0,0,15.06,13.6l.24-.08c-.6,3-1.29,6,2.15,7.92a1.74,1.74,0,0,1,.85,1.16c.49,11.83,9.11,23.76-.35,35.48-.68,10.43-9.71,17.8-10.54,28-.44,5.41-3,9.67-4.89,14.37-2.53,6.46-8.14,10-13.72,13.22-4.64,2.71-5,4.76-1,8.53s7.76,7.77,7,14c-.1.82.06,2.12-.38,2.39-5.2,3.18-7.86,10.12-15,10.32-8.94.25-17.2-.74-24.24-7.66-3.86-3.79-10.57-3.45-15.15-7-.63-.49-2.32,0-3.33.44-8.21,3.67-15.75,3.59-23.25-2.3a15.08,15.08,0,0,0-12.82-2.61c-3.75.89-7.86-.59-11.42,1.86-.63.44-2.05.2-2.88-.19-6.92-3.21-12.91-.41-18.79,2.86C391.48,510.09,390.89,511.92,390.52,513.77Z" transform="translate(-42.52 -315.9)"/></g></svg>