<svg id="Layer_1" data-name="Layer 1" xmlns="http://www.w3.org/2000/svg" viewBox="0 0 267.45 441.92"><defs><style>.cls-1{fill:none;}</style></defs><g id="blu"><path class="cls-1" d="M278.19,640.39l-6-4c-.33-6.1-5-3.41-8-3.95h0c-.35-2-1.43-3.54-3.46-3.78-4-.47-8.16-1.16-11.87.36-5.73,2.34-10.89,4.65-17.71,4.26-4.5-.26-7.79-.3-10.73-3.69a3.76,3.76,0,0,0-2.2-1c-7.91-1.17-13.6-6.89-20.53-10.09-3.69-1.71-7.17-4.25-11-5.72-8.39-3.2-13.71-10.65-12.24-19.14,1.21-7,4.27-13.61,7.63-19.82,4.54-8.4,7.42-17,6-26.55-.42-3-1.57-6.08-4.06-7.79a37.54,37.54,0,0,1-10.18-10.84c-7.05-11-12.64-24.33-1.3-38,2.57-3.09,2.15-6.94,1-10.49-.63-1.91-.78-3.94-1.4-5.74-2-5.78-.9-12-2.46-17.63-2.19-7.92-2.12-15.36,1.27-22.76a10.58,10.58,0,0,0,1.17-5.76h0c2,.2,3.08-.85,4.42-2.38,5.1-5.81,5.33-13.31,7.5-20.12a5.39,5.39,0,0,0-1.21-5.59c-2.58-2.45-2.76-5.48-2.63-8.69s-.53-6-4.09-7h0c.06-11-.31-22,.31-32.92.41-7.3-2.89-13.25-5.65-19.27-2.38-5.21-4.4-10.26-4.65-16,2.88-4.41,5.69-8.88,8.67-13.23,5.37-7.84,8.51-16.66,11.27-25.62,2.18-7.09,5.69-13.59,8.47-20.41.37-.92,1.27-1.79,1.24-2.67-.32-10.33,6.22-19.08,6.67-29.3.14-3.09,2.31-6.15,3.83-9.08a15.61,15.61,0,0,0,2-7.61,3.83,3.83,0,0,0,3.32-1.81c1.62-2.75,4.31-3.65,7.08-4.85,4.18-1.81,8.4-1.09,12.61-1.33.73.88,1.3,2.29,2.21,2.55,5,1.45,10.08,4.45,14.79,4.91,12,1.19,24.21.23,36.34.13l0,.09c.07,5.81,4.3,1.94,6.49,2.82,6.24,2.52,12.91,3.79,19.15,6.15a78.26,78.26,0,0,0,32,5.32l14.13,3.85c1.08,2.7,3.49,2.07,5.56,2.17,6.16.3,12.32-.86,18.12,3.37a37.62,37.62,0,0,0,8.12,4.4,23.18,23.18,0,0,1,11.59,9.48c5.89,9.68,11,19.84,17,29.44,3.08,4.92,5.57,10.71,11.6,13.19,0,3.12,2.29,4.76,4.17,6.68-.33,4.32-1.16,8.79.36,12.88,1.6,4.32,0,6.13-3.9,6.44-2.93.23-4.48,1.15-5.09,4.22-.48,2.42-2.27,3.16-5.13,3.45-6.24.64-11.1-1.31-15.84-5a13.57,13.57,0,0,0-7-2.37c-8.8-.7-17-4.42-25.61-5.44-9.53-1.13-19.18-1.91-28.68.58-7.47,2-15.2,3.48-20.37,10.13-.37.47-1.23.52-1.76.91-2.51,1.87-5.48,3.4-7.36,5.77A45,45,0,0,1,295.89,339c-3,1.46-6.82,3-7,6.5-.33,5.87-4,10.31-5.54,15.68-2.57,9.14-5.18,17.9-2.85,27.4l0,0c-3,1-3.69,3.85-4.07,6.32-.44,2.9-2.11,5.16-2.93,7.67-1.91,5.89-6.07,10.5-8,16.43-1.5,4.58.07,9.48-2.29,13.59-4.76,8.27-4.21,16.44-.05,24.59A26.34,26.34,0,0,1,266.34,470c-.09,4.51,1.74,8.49,4.37,12.38,3.1,4.57,6,9.4,5.61,15.57a53.73,53.73,0,0,0,1.38,16.72c1.09,4.3,4,8.94,2.17,13.5-2.57,6.52-1.43,13.13-1.58,19.7-.08,3.31.6,6.64,4.32,8.14l.22-.17c-.14,6.72,4.32,11.55,7,17.13,2.9,6.07,5,11.89,3.33,19.28-1.72,7.6-6.64,14.55-5,23,.58,3,.24,5.91,2.84,8.58,3.27,3.36,1.5,13.51-2.8,18.51C285.63,637.5,281.88,639.14,278.19,640.39Z" transform="translate(-166.05 -200.38)"/></g></svg>