<svg id="Layer_1" data-name="Layer 1" xmlns="http://www.w3.org/2000/svg" viewBox="0 0 239.97 279.35"><defs><style>.cls-1{fill:none;}</style></defs><g id="yellow"><path id="yellow-2" data-name="yellow" class="cls-1" d="M342.7,315.77c-1,1.93.19,3.13,1.44,4.31,3.59,3.37,5.43,7.89,8,11.93,2.9,4.53,6.6,8.57,10.08,12.71,1,1.23,2.73,1,4.25.89,5-.35,9.11,2,13.66,3.49,15.8,5.13,20.72,18.88,27,31.67,2.56,5.2,6,9.94,7.69,15.6a56.82,56.82,0,0,1,2.07,24.34c-.63,4.42,1.27,9.32-1.28,13.26-5.48,8.48-10.47,16.78-19.52,23.11-11.06,7.72-23.24,9.43-35.26,13.08-10.57,3.21-21.55,5.17-31.54,10.4-4.49,2.35-10,2.37-15,3.09-11.05,1.59-16.54,5.79-20.08,16.71-2.08,6.39-3.69,12.88-7.44,18.79-3.1,4.88-6.09,9.38-11.15,12.37-7.84,4.62-13.68,11.49-19.82,18a44.15,44.15,0,0,1-15.82,10.67c-.73.3-.8,1-.75,1.68-5.76-5.2-11.76-9.77-16.28-16.67-3-4.64-4.12-12.07-11.17-13.9-.39-.1-.53-1.15-.78-1.75-1-13.91-5.17-27.42-5.26-41.45.95-8.9,1.21-17.76-1.71-26.41a18.69,18.69,0,0,0-.62-7.36,88.84,88.84,0,0,1-3.7-19.31c-.46-6.35-2.17-12.6-2.9-18.94-.55-4.78-2.85-9.13-2.89-14,0-1.07.47-2.91-1.65-3.05-.8-11.36-3.46-22.37-6.41-33.32.39-9.29-2.06-18.32-3-27.48-.49-4.76.39-10.88-4.48-14.67.77-1.6,0-2.82-1-4A40.36,40.36,0,0,1,179.65,307a2.52,2.52,0,0,1,.6-.33c5.18-2.2,8.66-6.35,12.07-10.57,4.12.28,7.44-3.14,11.63-2.51l.4.18c1.53,1.5,3.46,1.79,5.49,2,7.3.84,14.16-1.06,20.89-3.41,9.29-3.24,18.37-8.64,28.22-8.18,14.35.67,28.6-3.89,42.91-.32a3.89,3.89,0,0,0,1.46-.24l2,.3c2.41,2.78,5.82,4,9,5.65,1.3,2.72,3.81,3.93,6.27,5.36a43.48,43.48,0,0,1,13.8,12.94c2.27,3.25,4.53,5.95,8.1,7.54Z" transform="translate(-177.48 -282.52)"/></g></svg>