<svg id="Layer_1" data-name="Layer 1" xmlns="http://www.w3.org/2000/svg" viewBox="0 0 314.41 365.87"><defs><style>.cls-1{fill:none;}</style></defs><g id="green"><path class="cls-1" d="M179.35,403.17c-3-6.59-6.28-12.94-11.7-18a18.07,18.07,0,0,1-2.43-3.7c.39-2.2-.4-4.2-.82-6.32-1.54-7.73-2.5-15.51,3.22-22.24,7.16,2.47,13,.64,18.64-4.42,3.7-3.34,7.36-6.81,12.1-9.11,6.31-3.06,9-10.6,6.69-17.4-1-2.84-2.41-4.89-6.49-5.54-4.59-.73-8.74-4.15-13.09-6.4-1.34-4.9-4.62-9.16-4.13-14.72.3-3.32,1.1-6.38,3.13-8.75,2.54-3,5-5.78,5.28-9.9a2.7,2.7,0,0,1,1.33-2c4.72-1.69,7.73-6.07,12.63-7.59,8.59-2.67,15.12-9.3,23.66-12.42a93.34,93.34,0,0,1,13.74-4.07c4-.79,6.69-2.85,9.19-5.22,8.52-8.07,18.82-8,29.29-6.76,5.53.67,10.91,2.54,16.41,3.56,10.84,2,15.31,8.47,14.88,19.44-.23,5.92-.72,12.4,3.36,17.76a4.47,4.47,0,0,1,1,2.76c-.74,8.2,2.25,16.09,2.07,24.18-.1,4.48,2,8.43,2.05,12.7,0,8.85-3.52,16.52-9.37,22.92a15.54,15.54,0,0,0-4.24,9.79c-.3,6.73-1.47,13.61,1.19,20.26.71,1.76.51,3.94.51,5.92,0,16.5.19,33-.12,49.49-.08,4.4,2.31,8.5.73,13.13-.56,1.64,1.7,3.8,3.53,5.1,1.51,1.07,3.49,2.26,3.42,4.08-.33,8.8,4.4,16.56,4.65,25.33.22,8.16-2.86,15.35-5.07,22.7-3.08,10.28-5,19.87,1.94,29.33,1.07,1.47.46,4.13,1.48,5.68,2.17,3.27,5.2,5.44,9.54,5.34,7.11-.16,12.21,3.88,16.26,9,3.51,4.45,8.82,6.42,12.62,10.41,5.84,6.13,13.9,8.55,21.59,10.77,4,1.17,9.38,1.17,13.4-2.21l0,0a30.19,30.19,0,0,1,35.14,1.67,32.4,32.4,0,0,0,14.27,6.45c9.93,1.77,14.42,7.07,14.58,17,0,1,.07,2,.1,3h0c-2.16-.08-4.29-.26-6.22,1.17A42.46,42.46,0,0,1,421,603.84c-3.56-.18-6.57-1.92-10.19-1.82-9.91.28-18.19-2.48-23.62-12-4-7-16-9.39-23.7-6.47-6.66,2.54-10.53,8-14.84,13-5.24,6-19.32,8.35-26,3.85-6-4-10-10.07-14.64-15.38-4.37-5-8.73-9.7-14.64-13-13.15-7.25-26.55-2.78-39.74-.72-5.08.79-9.19,2.06-12.73-2.94s-8-8.35-14.71-6.28c-.91.28-2-.06-3,.06-5.38.66-8.91-1.46-12.06-6-2.06-3-5.28-6-9.8-5.85l-1.89-.21c0-1.54-.15-3-1.82-3.77-12.48-5.79-24.32-13.39-39.12-12.29-8,.59-11.83-3.42-12.53-11.66a4.9,4.9,0,0,0-1.65-3.51c-4.17-3.47-3.67-7.8-1.43-11.71,3.55-6.17,5-14.51,14.3-15.49.64-.07,1.22-1,1.78-1.64a154.8,154.8,0,0,0,11.51-13.53c2.76-3.79,4.27-7.74,2.84-12.42.1-1.31.19-2.61.29-3.92,2.81-1.16,3.26-3.55,4-6.25,2-6.92,1.66-14.24,4.88-21.05,1.35-2.86,5.63-6.06,2.75-10.23-1.65-2.39-1.77-4.9-1.77-7.56,0-2.5,0-5-2.11-6.87v0C181.42,406.2,181.83,404.11,179.35,403.17Z" transform="translate(-141.15 -238.04)"/></g></svg>