<svg id="Layer_1" data-name="Layer 1" xmlns="http://www.w3.org/2000/svg" viewBox="0 0 172.36 225.99"><defs><style>.cls-1{fill:none;}</style></defs><g id="grey"><path class="cls-1" d="M352.41,323.92c-1.14,4.59,3.5,6.84,4.38,10.74.54,2.4,1.47,4.69,1.41,7.22a30.54,30.54,0,0,0,1.42,9.24c1.62,5.62-1.51,11-2.39,16.44-.47,2.95-.39,4.76,2.06,6.29,1.83,1.15,3.08,2.78,2.82,4.93-.85,7,2.48,12.9,4.34,19.2A164.67,164.67,0,0,1,373,430.82c.74,8.57,0,17.21,1.43,25.65.85,5,2.78,9.86,4.53,14.67,1.5,4.13,1.8,8.63,4.65,12.4,1.41,1.87,1.27,5-.09,7.19-4.28,6.86-5,14.48-5.24,22.23-.08,2.79-.31,5.63,1.27,8.25,2.05,3.4-1.18,5.48-2.25,8.1l-1.39,1.35c-5.86.67-11.27,3.9-17.4,3-3.47.52-6.39-1.49-9.62-2.11-15.07-2.87-30.51-3.26-45.52-6.28-10.4-2.09-21-1.48-31.34-3.78-2.73-.61-5.62-1.08-8.06-2.34-7.4-3.83-15.77-3.14-23.53-5.36a13.51,13.51,0,0,0-10.68,1c-2.44,1.46-4.44-.17-6.44-1.32-1-3.42-.65-6.95-.62-10.42.07-10.38-2.75-20.23-5.45-30.09a29.93,29.93,0,0,1-.62-9.41c.35-7.87,0-15.57-3.4-22.89a11.26,11.26,0,0,1-.55-4.41c-.06-4.16.47-8.39-.07-12.48-1.87-14.2,3.94-26.58,8.39-39.41,2.56-7.39,3.41-15.36,5.67-22.87,1.73-5.75,1-12.7,6.27-16.91,9.93-8,16.87-19,27.38-26.34a49.2,49.2,0,0,1,18.57-8.44c8.48-1.83,16.78-1.74,25.2-2,7-.2,13.55,1.88,20.33,3.49,8.66,2.05,15.11,7.25,22.39,11.3A11.19,11.19,0,0,0,352.41,323.92Z" transform="translate(-212.21 -307.83)"/></g></svg>