<svg id="Layer_1" data-name="Layer 1" xmlns="http://www.w3.org/2000/svg" viewBox="0 0 458.85 729.68"><defs><style>.cls-1{fill:none;}</style></defs><g id="red"><path class="cls-1" d="M70.1,633.1a15.4,15.4,0,0,1-1.81-7,15,15,0,0,0,.94-1.71C73.47,614,73.46,614,84.52,613.91a4.69,4.69,0,0,0,1-.2,43.39,43.39,0,0,0,4.07,1.66c2.89.88,5.43.65,7.34-2.2s.92-4.82-1.23-6.88c-1.13-1.08-2.71-2-2.78-3.87,2.22-1.61,3.73-3.73,3.5-6.52s-2.84-2.16-4.54-2.8c1.76-3.17,4.9-2.91,7.82-3.07,3.55-.19,6.88-.75,9.15-3.89,6,.31,10.7-3.72,16.2-5.25,6.51-1.8,11.49-6.76,15.19-12.58,4.6-7.25,10.44-13.8,10.83-23.21a24,24,0,0,1,3.71-11.53c4.14-6.38,6.52-13.89,12.24-19.25l0,0c4.37-1,7.82-3.93,11.78-5.82,6.92-3.31,13.34-7.84,21.8-5.92,2.42.55,6,.68,6.06-3.7.33-1.47.7-3.1-.16-4.36C202.13,488.09,201,480,196,474l-1.07-.86h0c.13-2.82-1.94-4.06-3.88-5.34-9.95-6.58-12.29-14.53-7.25-25.13a9.31,9.31,0,0,0,1.28-4.23l0,0c4-.33,6-3.24,8.07-6.08l1.58-2c9,.05,14.35-4.41,14.16-11.77A18.26,18.26,0,0,0,207.6,414c-1.8-5.53-6-10-6.77-16-1.82-7.21-1.1-14.52-.93-21.81l0,0,5.28-13.72a3.19,3.19,0,0,0,1.89-2.14c8.63-1.75,15-7.13,16-13.52a2.77,2.77,0,0,1,.33-.55c3.73.61,2.9-2.8,3.23-4.33,1.41-6.55,3-13.22-3.39-18.58-2.14-1.8-3.94-5.61-2.77-7.5,2.32-3.76,1.59-8.46,4.54-11.77,3.13-1.65,5.22-4.76,8.59-6.07,1,.7,2.25,1.54,3.17,1,4.94-3.06,10.17-.23,15.21-.91,1.9-.25,3.93.47,5.7-.79,1.44,1.79,3.37,1.57,5.42,1.66,2.93.13,5.88-1.56,8.77.09,4-.79,7.83-2.58,12-2.7a3.19,3.19,0,0,0,3.44-2.87l3.66-1.3c2.91-3.43,3-10.18.17-14l-5.18-9.93a27.41,27.41,0,0,0,.76-9c-.08-9.84,3.1-18.76,7.49-27.39,1.41-2.77,1.93-6.09,3.71-8.54,1.51-2.07-2.29-3-.45-4.12,2.68-1.58,2.25-4.21,1.63-5.92a29.39,29.39,0,0,1-1.52-11.43c.3-9.38,8-14.93,16.53-11.09,2,.91,4.14.95,6.28,1.26,6.21.92,12.17-.25,18.09-1.68,6.52-1.57,13.11-3.25,14.28-11.54.24-1.73,1.64-2.28,2.91-3.12,2.62-1.75,5.36-3.56,5.05-7.37,2.84-2.21,4.25-6.12,8.25-7,6.35-2.61,10.37-7.8,14-13.19,5.7-8.43,7.55-18.73,13.55-27.19,7.94-11.19,15.38-15,27.2-11.6,5.52,1.6,11.58,1.59,16.42-1.86,4-2.85,7.26-6.83,10.52-10.59,4.87-5.62,7-12.83,13.38-18,7.39-6,14.83-6.79,23.18-6.58,1.45,0,3,1,4.15-.33,2.64-3.08,6.53-5.26,7.29-9.75,4.37-.58,6.35-5.22,10.49-6.19,4.1.28,7.85.68,11.42,3.67,5.42,4.55,6.87,10.07,6.55,16.59-2.34,4.29-5.85,8-6.94,12.92l-3.29,4.9A141.87,141.87,0,0,0,503,105.92c-2.66.84-5.33,1.66-8,2.54-8.23,2.7-13.11,12.49-10.67,20.63,2,6.75,6.22,12.47,7.34,19.78,2.2,14.35-.48,22.21-12.67,30.44-3.29,2.22-6.67,4.29-10,6.43-2.92,1.06-6.22,1.34-8.24,4.18l-6,2.14c-6.74,1.24-10.31,7.1-9.8,16.06l-.05.13c-4.08,5.48-5.84,11.94-7.95,18.29-3,8.92-4.23,18.39-8.76,26.79-.66,1.14-1.31,2.28-2,3.41-4.47,7.58-4.4,16.48-7.14,24.56-1.44,4.26-5.26,7.75-4.12,12.84-2.88,5-5.93,9.7-10.93,13.06-2.25,1.51-5,3.37-5.27,6.74-4.6,2.53-9.64,2.1-14.6,2.15a109.23,109.23,0,0,0-27.54-2c-4.28.25-8.34,1.13-11.68,4.08a60.1,60.1,0,0,0-15.91,6.14c-4-1.05-7.05,1.27-10.31,2.8-10.63,5-20.6,11.44-32.25,14.21a38.87,38.87,0,0,0-14.06,5.92c-9.64,6.89-10.21,17.22-11.21,27.41-.18,1.82-1.29,4.44,1.33,5.87-2.09,2.69-.49,7.14-3.42,9-5.76,3.71-6.54,9-6.48,15.08.09,9.11-.08,18.23-.14,27.34-7.21,5.83-12.3,21.55-8.75,29.82,2.2,5.14,4.65,10.86,11.21,12.44-.5,5.77,3.1,8.41,7.79,10.23,3.16,7.36,2.72,14.28-1.44,21.35-2.13,3.62-2.76,8.08-2.59,12.54a194.35,194.35,0,0,1,.08,19.46c-.65,10.53-4.53,19.36-14.84,24-6.17,2.8-12.36,5.57-18.59,8.25-4,1.73-6.25,4.39-6.56,9a143,143,0,0,0,.34,21.42,64.42,64.42,0,0,0,4.07,17.84c0,2.07-.93,4.44,1.84,5.6l.15.22c0,4.42-1.73,8.39-3.41,12.32-2.42,5.65-7.89,2.5-11.83,3.82a3.87,3.87,0,0,1-.49.05c-3.76.72-8.25,5.53-8.15,8.72l-2.36,1.21a2,2,0,0,0-2,1.49c-.3.06-.6.1-.9.13,0-.91-.06-1.82-.1-2.72.88-.15,2,0,2.18-1.23,0-.25-.58-.89-.84-.86-1.23.16-1.12,1.26-1.29,2.14-1.23.36-2.79,1.23-3.54-.3-1.63-3.34-4.47-2.74-7.22-2.65-2.69-6.55-8.16-10.1-14.15-13.08-3.24-1.61-6.34-1.57-9.22.82a8.94,8.94,0,0,0-9,4.19c-4.72,6.9-4.62,7.87,1.37,13.89a22,22,0,0,0,2.13,2.08c3.9,3,3.25,6.44,1.88,10.62-2.11,6.39-6.08,11.66-9.21,17.43-4,3.88-3.19,7.83,2.35,12,1.47,6.59,7.88,8,11.93,12.4.6-1.74.37-2.47-.2-3.14a6.77,6.77,0,0,1,3.25,4.81c1.73,8.06,3.23,16.17,4.81,24.25l-2.17-.32-.36-.22.4.17c-3.12,4.3-2.47,7.41,2.11,10.6,3.29,2.3,5.34,6.27,9.24,8.12a2.61,2.61,0,0,1,1.26,2c-.46,4.68,1.47,9.06,1.4,13.72-.09,5.75-3.37,9.74-7,13.72,2.52,1.51,4.48.17,6.49-.29l1.4,2.1,0,0a5.57,5.57,0,0,0-5.15.78c-4.87,3.09-10.13,3.2-15.71,2.47-7.13-.93-13-4.76-19.44-7.39a.35.35,0,0,0-.3-.42,3.56,3.56,0,0,0-2.09-2.35L124.88,754c.69-4.45-3.79-5.84-5.67-8.62-3-4.49-5.91-10-12.07-11.49l0,0a4,4,0,0,0-4-4l-.19.26.21-.25A16.29,16.29,0,0,0,95,720c-.3-.62-.59-1.24-.89-1.85.12-4.88-3.72-9-2.54-14.11,3.07.09,2.86-1.49,1.72-3.44a35.65,35.65,0,0,1-3.87-8.43c-.51-1.84-1.64-4.07-4.24-4.35-3.18-11.16-3.77-22.66-4.57-34.14-.28-4-.8-7.88-3.61-11A14.85,14.85,0,0,0,70.1,633.1Z" transform="translate(-68.29 -56.08)"/></g></svg>