<svg id="Layer_1" data-name="Layer 1" xmlns="http://www.w3.org/2000/svg" viewBox="0 0 510.22 543.56"><defs><style>.cls-1{fill:none;}</style></defs><g id="viola"><path class="cls-1" d="M549.36,569.89l-10.18,13.94c-5.67-.8-9.28,3.07-13.22,6-5.27,3.91-9.36,4.24-14.93.49-1.81-1.22-3.13-1.42-4.79.24-2.22,2.21-4.87,4.72-7.8,5-11.22.89-23,2.67-33.51-1.47-10-3.94-18.11.49-26.93,2.43a3.93,3.93,0,0,0-2.7,3.34l-.27.14a14.69,14.69,0,0,0-6.81,1c-7.14,2.63-14.22,5.26-22.13,5.07-6.14-.15-8.07,1.79-9,7.76-1.42,9.37-4.69,18.26-6.58,27.53-1.84,9-5.27,17.69-5.55,27.05-.07,2.29-1.64,3.91-2.89,5.69-2.38,3.4-6.12,5.6-8.36,8.91-1.94,2.87-4.09,5.19-7.26,5.46-6.7.57-12.7,3.76-19.31,4.58a22.25,22.25,0,0,1-7.84-.47c-9.32-2.1-15.59-9.32-23.53-13.72-6-3.31-7.29-9.68-8.56-15.78-.51-2.45-.77-5.28,1.3-7.08,3.38-2.92,5.15-6.89,7.56-10.43,1.59-2.34,3.19-4.32,6.7-3-.38-2.77-.1-4.64,2.78-5.2,1.16-.22,2.07-1.58,3.18-2.3,6.75-4.37,9.7-12,15.05-17.64,4.6-4.85,6.82-11.37,7.43-18.51.41-4.82,2.82-9.6,5.73-13.61,2.2-3,6-2.09,9.32-2,.75,0,1.5-.7,2.3-.88,10.74-2.44,19.25-10.46,30.33-12.06,1.26-.18,1.83-1.35,2.24-2.48,6.76-.24,13.26-3.18,20.13-2.11,3.11.49,3.42-3.58,6.2-3.42,5.8.34,11.16-3.27,17.12-1.91a3.58,3.58,0,0,0,2.66-1c7.67-7.35,17.59-11.81,25-19.55a13.57,13.57,0,0,1,8.48-3.85c2.42-.26,10.07-7.43,10.18-9.59.34-6.87.18-13.62-5.28-18.93a11.36,11.36,0,0,1-2.62-5.28c-2.88-10-4.78-20.19-8.68-29.88s-10.7-17.88-12.19-28.61c-.35-2.49-2.34-5.94-5.12-7.06-7.06-2.86-12.37-8.25-18.76-12-2.68-1.57-4.76-4.75-8.09-4.61-10,.45-14.14-8-19.64-13.55-3.26-3.29-6.32-7.31-10.09-9.69-4.5-2.83-6.29-6.41-7.42-11.07s-5.4-9-8.82-9.4C373,374.9,365,365.82,353.92,365c-.83-.06-1.58-1.15-2.39-1.74-6.17-4.46-13.5-4.91-20.44-4.21-8.33.84-16.7,1.26-24.81.18-5.17-.69-8.54.89-12.8,2.8-7,3.12-13.21,9.22-22,6.9a3.54,3.54,0,0,0-4.32,1.68l-.16.19c-2.62.93-4.36.27-5.49-2.47-1.25-3-3.75-4.19-7-4.65-3.89-.55-7.66-1.92-11.48-2.94,0-5.62-1.48-10.67-5.69-14.69-5.21-5-11.07-10-13.2-16.73a46.52,46.52,0,0,0-7.2-13.63c-2.2-5.21-4.57-10.48-8.28-14.66-5.29-6-10.78-12.12-19.53-13.18l-8.17-2.17c-2.74-3.41-6.49-1.38-9.77-1.82l-.26-.14a2.81,2.81,0,0,0-2.72-1.82c-9,.21-17.12-2.82-25.64-5.33-10-2.94-20.56-6-31.46-4.84-.3-.39-.52-1-.91-1.15A206.62,206.62,0,0,1,88.4,260.4c-4.82-2.66-10.89-4-16.53-.44a13.39,13.39,0,0,1-11.53,1.45c-4.41-1.53-8.78-1.42-13.2-1.76-4.45-4.78-5.77-10-2.16-15.86a21,21,0,0,0,8.05-8.1c3.9-3.8,6.26-8,6.23-13.87-.06-10.46-1.19-20.91-.28-31.38a8.38,8.38,0,0,1,2.63-5.52c6.67-7,15-12.06,21.88-18.76,1.82-1.77,3.25-2.1,4.69,1,1.3-2.9,3.57-4.27,4.91-6.15,2.57-3.61,7.51-2.15,9.81-5.13,4-5.24,9.45-7,15.43-6.12,7.13,1,15.07,1.18,18.17,10.11,1.62,4.67,4.69,7.16,9.88,4,.89-.54,2.45.09,3.41-.4,3.72-1.9,9.42-.11,11.08-5.85l.18-.13c1.66.19,3.2.11,3.93-1.76h2.26c3.5,3.13,8,4.19,12.23,5.79,3,1.16,5.44,2.16,5,5.55,6.74,1.48,12,5.69,18.8,6.17,5.3.37,10.82,2.64,16,1.53,4.69-1,9.2-.91,13.81-1a4.28,4.28,0,0,1,4.38,2.56c3.67,7.37,10.67,12.62,13.28,20.7a3.22,3.22,0,0,0,1.17,1.55c5.73,3.93,12.67,3.94,19.08,5.32,6.91,1.49,14.14,1.38,19,7.69a5.38,5.38,0,0,0,4.39,2.06c.73,2.68,1.47,5.35,2.2,8-1.75,1.61-1.47,2.93.57,4,.06,4.37,1.89,8.68.22,13.13-.28.73.43,1.89.8,2.8,3.74,9.18,11.92,12.48,20.52,13.76,11.69,1.74,18.25,11.64,28.17,16,.72,5.43,4.9,4.12,8.33,4.3,6.12.31,10.48,4.34,13,8.86,1.84,3.27,6.08,8.63-.44,12.52-.35.21-.37,1.25-.3,1.88.54,4.76,7.57,13,12.52,13.87,3.95.67,7.72,1.91,11.59,2.67,9.37,1.82,15.44,8.83,15.59,18.53,0,2.62-.68,5.52,1.2,7.72,2.48,2.91,2.82,6.22,2.83,9.79,0,3.23.69,6.28,4.09,7.83l1.11.24c1.43,5.21,5.56,8.56,9,12.26,3.55,3.88,5.84,7.86,5.88,13.24.08,10.71,5.95,15.08,16.4,12a32.33,32.33,0,0,1,19.13-.08,14.4,14.4,0,0,0,6.92.44,10.34,10.34,0,0,1,8.84,2.38c.52.42,1,1.12,1.59,1.16,7.63.66,9.66,7.14,12.91,12.34,1.23,2,2,4.35,3.55,6,2.6,2.73,2.7,5.46,1.41,8.69a11.49,11.49,0,0,0-.45,6.89c.54,2.38,1.68,3.62,4.49,3.58,9.42-.14,15.45,5.29,17.32,14.59a149.64,149.64,0,0,0,10.09,32.68c2.77,6.13,6.72,11.72,8.9,18.15,1.38,4.09,2.95,8,2.94,12.47,0,10.85-1.79,21.94,5.51,31.74,3.53,4.73,2.71,10.4-.1,15.58C549.57,565.64,548.86,567.63,549.36,569.89Z" transform="translate(-42.9 -149.56)"/></g></svg>